<mxfile host="app.diagrams.net" agent="Mozilla/5.0 (Windows NT 10.0; Win64; x64) AppleWebKit/537.36 (KHTML, like Gecko) Chrome/131.0.0.0 Safari/537.36 Edg/131.0.0.0" version="24.8.8">
  <diagram name="PÃ¡gina-1" id="8iYo4jJK8mS4WUOny4I4">
    <mxGraphModel dx="5437" dy="2606" grid="1" gridSize="10" guides="1" tooltips="1" connect="1" arrows="1" fold="1" page="1" pageScale="1" pageWidth="827" pageHeight="1169" math="0" shadow="0">
      <root>
        <mxCell id="0" />
        <mxCell id="1" parent="0" />
        <mxCell id="4v4AGWWlLgVqddMLJCEB-3" value="" style="edgeStyle=orthogonalEdgeStyle;rounded=0;orthogonalLoop=1;jettySize=auto;html=1;" parent="1" source="4v4AGWWlLgVqddMLJCEB-1" target="4v4AGWWlLgVqddMLJCEB-2" edge="1">
          <mxGeometry relative="1" as="geometry" />
        </mxCell>
        <mxCell id="4v4AGWWlLgVqddMLJCEB-1" value="Inicio" style="ellipse;whiteSpace=wrap;html=1;fillColor=#dae8fc;strokeColor=#6c8ebf;" parent="1" vertex="1">
          <mxGeometry x="354" y="-30" width="120" height="80" as="geometry" />
        </mxCell>
        <mxCell id="4v4AGWWlLgVqddMLJCEB-64" value="" style="edgeStyle=orthogonalEdgeStyle;rounded=0;orthogonalLoop=1;jettySize=auto;html=1;" parent="1" source="4v4AGWWlLgVqddMLJCEB-2" target="4v4AGWWlLgVqddMLJCEB-63" edge="1">
          <mxGeometry relative="1" as="geometry" />
        </mxCell>
        <mxCell id="4v4AGWWlLgVqddMLJCEB-70" style="edgeStyle=orthogonalEdgeStyle;rounded=0;orthogonalLoop=1;jettySize=auto;html=1;" parent="1" source="4v4AGWWlLgVqddMLJCEB-2" target="4v4AGWWlLgVqddMLJCEB-69" edge="1">
          <mxGeometry relative="1" as="geometry" />
        </mxCell>
        <mxCell id="kTSnjcyp7PbZxTP0yt8h-42" style="edgeStyle=orthogonalEdgeStyle;rounded=0;orthogonalLoop=1;jettySize=auto;html=1;" parent="1" source="4v4AGWWlLgVqddMLJCEB-2" target="kTSnjcyp7PbZxTP0yt8h-41" edge="1">
          <mxGeometry relative="1" as="geometry">
            <Array as="points">
              <mxPoint x="2507" y="220" />
            </Array>
          </mxGeometry>
        </mxCell>
        <mxCell id="BAwS0Nd3ZvO8XFaEo_h9-21" style="edgeStyle=orthogonalEdgeStyle;rounded=0;orthogonalLoop=1;jettySize=auto;html=1;entryX=0.5;entryY=0;entryDx=0;entryDy=0;" edge="1" parent="1" source="4v4AGWWlLgVqddMLJCEB-2" target="BAwS0Nd3ZvO8XFaEo_h9-14">
          <mxGeometry relative="1" as="geometry" />
        </mxCell>
        <mxCell id="4v4AGWWlLgVqddMLJCEB-2" value="Options" style="rhombus;whiteSpace=wrap;html=1;fillColor=#fff2cc;strokeColor=#d6b656;" parent="1" vertex="1">
          <mxGeometry x="310" y="110" width="144" height="140" as="geometry" />
        </mxCell>
        <mxCell id="4v4AGWWlLgVqddMLJCEB-16" value="" style="edgeStyle=orthogonalEdgeStyle;rounded=0;orthogonalLoop=1;jettySize=auto;html=1;exitX=0.5;exitY=1;exitDx=0;exitDy=0;" parent="1" source="vZqE9rtirsH-dbJtb7xl-5" target="4v4AGWWlLgVqddMLJCEB-15" edge="1">
          <mxGeometry relative="1" as="geometry">
            <mxPoint x="-407" y="655" as="sourcePoint" />
          </mxGeometry>
        </mxCell>
        <mxCell id="Jl9io4gUFYn2vLOO0o0W-24" style="edgeStyle=orthogonalEdgeStyle;rounded=0;orthogonalLoop=1;jettySize=auto;html=1;" parent="1" source="4v4AGWWlLgVqddMLJCEB-8" target="4v4AGWWlLgVqddMLJCEB-17" edge="1">
          <mxGeometry relative="1" as="geometry" />
        </mxCell>
        <mxCell id="4v4AGWWlLgVqddMLJCEB-8" value="user{&lt;div&gt;email,&lt;/div&gt;&lt;div&gt;passwrord,&lt;/div&gt;&lt;div&gt;name,&lt;/div&gt;&lt;div&gt;avatar&lt;/div&gt;&lt;div&gt;}&lt;/div&gt;" style="whiteSpace=wrap;html=1;" parent="1" vertex="1">
          <mxGeometry x="-700" y="720" width="120" height="160" as="geometry" />
        </mxCell>
        <mxCell id="4v4AGWWlLgVqddMLJCEB-12" value="" style="edgeStyle=orthogonalEdgeStyle;rounded=0;orthogonalLoop=1;jettySize=auto;html=1;exitX=0.383;exitY=1;exitDx=0;exitDy=0;exitPerimeter=0;" parent="1" source="vZqE9rtirsH-dbJtb7xl-6" target="4v4AGWWlLgVqddMLJCEB-8" edge="1">
          <mxGeometry relative="1" as="geometry">
            <mxPoint x="-658.5" y="590" as="sourcePoint" />
          </mxGeometry>
        </mxCell>
        <mxCell id="4v4AGWWlLgVqddMLJCEB-18" value="" style="edgeStyle=orthogonalEdgeStyle;rounded=0;orthogonalLoop=1;jettySize=auto;html=1;" parent="1" source="4v4AGWWlLgVqddMLJCEB-15" target="4v4AGWWlLgVqddMLJCEB-17" edge="1">
          <mxGeometry relative="1" as="geometry">
            <Array as="points">
              <mxPoint x="-400" y="1135" />
            </Array>
          </mxGeometry>
        </mxCell>
        <mxCell id="4v4AGWWlLgVqddMLJCEB-15" value="request&lt;div&gt;&lt;br&gt;&lt;div&gt;body: {&lt;/div&gt;&lt;div&gt;email,&lt;/div&gt;&lt;div&gt;password&lt;/div&gt;&lt;div&gt;}&lt;br&gt;&lt;div&gt;&lt;br&gt;&lt;/div&gt;&lt;/div&gt;&lt;/div&gt;" style="whiteSpace=wrap;html=1;" parent="1" vertex="1">
          <mxGeometry x="-495" y="700" width="176" height="110" as="geometry" />
        </mxCell>
        <mxCell id="4v4AGWWlLgVqddMLJCEB-17" value="response&lt;div&gt;&lt;br&gt;&lt;/div&gt;&lt;div&gt;header{&lt;/div&gt;&lt;div&gt;Authorization:&lt;/div&gt;&lt;div&gt;jwt&lt;/div&gt;&lt;div&gt;},&lt;br&gt;&lt;div&gt;&lt;br&gt;&lt;/div&gt;&lt;div&gt;body:{&lt;/div&gt;&lt;div&gt;id,&lt;/div&gt;&lt;div&gt;name,&lt;/div&gt;&lt;div&gt;avatar,&lt;/div&gt;&lt;div&gt;active&lt;/div&gt;&lt;div&gt;}&lt;/div&gt;&lt;div&gt;&lt;br&gt;&lt;/div&gt;&lt;/div&gt;" style="whiteSpace=wrap;html=1;" parent="1" vertex="1">
          <mxGeometry x="-750.5" y="1020" width="221" height="290" as="geometry" />
        </mxCell>
        <mxCell id="4v4AGWWlLgVqddMLJCEB-25" value="functions:&lt;div&gt;&lt;br&gt;&lt;div&gt;traductor,&lt;/div&gt;&lt;/div&gt;&lt;div&gt;mapa,&lt;/div&gt;&lt;div&gt;lista de deseos,&lt;/div&gt;&lt;div&gt;crear historias con pasos y distancia entre ellas&lt;/div&gt;" style="whiteSpace=wrap;html=1;" parent="1" vertex="1">
          <mxGeometry x="370" y="-330" width="120" height="220" as="geometry" />
        </mxCell>
        <mxCell id="4v4AGWWlLgVqddMLJCEB-27" value="User" style="swimlane;fontStyle=0;childLayout=stackLayout;horizontal=1;startSize=30;horizontalStack=0;resizeParent=1;resizeParentMax=0;resizeLast=0;collapsible=1;marginBottom=0;whiteSpace=wrap;html=1;" parent="1" vertex="1">
          <mxGeometry x="1460" y="-870" width="140" height="210" as="geometry" />
        </mxCell>
        <mxCell id="4v4AGWWlLgVqddMLJCEB-28" value="id: PK" style="text;strokeColor=none;fillColor=none;align=left;verticalAlign=middle;spacingLeft=4;spacingRight=4;overflow=hidden;points=[[0,0.5],[1,0.5]];portConstraint=eastwest;rotatable=0;whiteSpace=wrap;html=1;" parent="4v4AGWWlLgVqddMLJCEB-27" vertex="1">
          <mxGeometry y="30" width="140" height="30" as="geometry" />
        </mxCell>
        <mxCell id="4v4AGWWlLgVqddMLJCEB-73" value="name: varchar" style="text;strokeColor=none;fillColor=none;align=left;verticalAlign=middle;spacingLeft=4;spacingRight=4;overflow=hidden;points=[[0,0.5],[1,0.5]];portConstraint=eastwest;rotatable=0;whiteSpace=wrap;html=1;" parent="4v4AGWWlLgVqddMLJCEB-27" vertex="1">
          <mxGeometry y="60" width="140" height="30" as="geometry" />
        </mxCell>
        <mxCell id="4v4AGWWlLgVqddMLJCEB-29" value="email: varchar" style="text;strokeColor=none;fillColor=none;align=left;verticalAlign=middle;spacingLeft=4;spacingRight=4;overflow=hidden;points=[[0,0.5],[1,0.5]];portConstraint=eastwest;rotatable=0;whiteSpace=wrap;html=1;" parent="4v4AGWWlLgVqddMLJCEB-27" vertex="1">
          <mxGeometry y="90" width="140" height="30" as="geometry" />
        </mxCell>
        <mxCell id="4v4AGWWlLgVqddMLJCEB-30" value="password: varchar" style="text;strokeColor=none;fillColor=none;align=left;verticalAlign=middle;spacingLeft=4;spacingRight=4;overflow=hidden;points=[[0,0.5],[1,0.5]];portConstraint=eastwest;rotatable=0;whiteSpace=wrap;html=1;" parent="4v4AGWWlLgVqddMLJCEB-27" vertex="1">
          <mxGeometry y="120" width="140" height="30" as="geometry" />
        </mxCell>
        <mxCell id="4v4AGWWlLgVqddMLJCEB-31" value="avatar: TEXT" style="text;strokeColor=none;fillColor=none;align=left;verticalAlign=middle;spacingLeft=4;spacingRight=4;overflow=hidden;points=[[0,0.5],[1,0.5]];portConstraint=eastwest;rotatable=0;whiteSpace=wrap;html=1;" parent="4v4AGWWlLgVqddMLJCEB-27" vertex="1">
          <mxGeometry y="150" width="140" height="30" as="geometry" />
        </mxCell>
        <mxCell id="Jl9io4gUFYn2vLOO0o0W-12" value="active: boolean" style="text;strokeColor=none;fillColor=none;align=left;verticalAlign=middle;spacingLeft=4;spacingRight=4;overflow=hidden;points=[[0,0.5],[1,0.5]];portConstraint=eastwest;rotatable=0;whiteSpace=wrap;html=1;" parent="4v4AGWWlLgVqddMLJCEB-27" vertex="1">
          <mxGeometry y="180" width="140" height="30" as="geometry" />
        </mxCell>
        <mxCell id="4v4AGWWlLgVqddMLJCEB-41" value="Wishlist" style="swimlane;fontStyle=0;childLayout=stackLayout;horizontal=1;startSize=30;horizontalStack=0;resizeParent=1;resizeParentMax=0;resizeLast=0;collapsible=1;marginBottom=0;whiteSpace=wrap;html=1;" parent="1" vertex="1">
          <mxGeometry x="1355" y="-610" width="140" height="120" as="geometry" />
        </mxCell>
        <mxCell id="4v4AGWWlLgVqddMLJCEB-42" value="id: PK" style="text;strokeColor=none;fillColor=none;align=left;verticalAlign=middle;spacingLeft=4;spacingRight=4;overflow=hidden;points=[[0,0.5],[1,0.5]];portConstraint=eastwest;rotatable=0;whiteSpace=wrap;html=1;" parent="4v4AGWWlLgVqddMLJCEB-41" vertex="1">
          <mxGeometry y="30" width="140" height="30" as="geometry" />
        </mxCell>
        <mxCell id="4v4AGWWlLgVqddMLJCEB-43" value="user_Id: FK" style="text;strokeColor=none;fillColor=none;align=left;verticalAlign=middle;spacingLeft=4;spacingRight=4;overflow=hidden;points=[[0,0.5],[1,0.5]];portConstraint=eastwest;rotatable=0;whiteSpace=wrap;html=1;" parent="4v4AGWWlLgVqddMLJCEB-41" vertex="1">
          <mxGeometry y="60" width="140" height="30" as="geometry" />
        </mxCell>
        <mxCell id="4v4AGWWlLgVqddMLJCEB-44" value="history_Id: FK" style="text;strokeColor=none;fillColor=none;align=left;verticalAlign=middle;spacingLeft=4;spacingRight=4;overflow=hidden;points=[[0,0.5],[1,0.5]];portConstraint=eastwest;rotatable=0;whiteSpace=wrap;html=1;" parent="4v4AGWWlLgVqddMLJCEB-41" vertex="1">
          <mxGeometry y="90" width="140" height="30" as="geometry" />
        </mxCell>
        <mxCell id="4v4AGWWlLgVqddMLJCEB-50" value="chapter" style="swimlane;fontStyle=0;childLayout=stackLayout;horizontal=1;startSize=30;horizontalStack=0;resizeParent=1;resizeParentMax=0;resizeLast=0;collapsible=1;marginBottom=0;whiteSpace=wrap;html=1;" parent="1" vertex="1">
          <mxGeometry x="1660" y="-360" width="200" height="300" as="geometry" />
        </mxCell>
        <mxCell id="4v4AGWWlLgVqddMLJCEB-51" value="id: PK" style="text;strokeColor=none;fillColor=none;align=left;verticalAlign=middle;spacingLeft=4;spacingRight=4;overflow=hidden;points=[[0,0.5],[1,0.5]];portConstraint=eastwest;rotatable=0;whiteSpace=wrap;html=1;" parent="4v4AGWWlLgVqddMLJCEB-50" vertex="1">
          <mxGeometry y="30" width="200" height="30" as="geometry" />
        </mxCell>
        <mxCell id="4v4AGWWlLgVqddMLJCEB-52" value="history_id: FK" style="text;strokeColor=none;fillColor=none;align=left;verticalAlign=middle;spacingLeft=4;spacingRight=4;overflow=hidden;points=[[0,0.5],[1,0.5]];portConstraint=eastwest;rotatable=0;whiteSpace=wrap;html=1;" parent="4v4AGWWlLgVqddMLJCEB-50" vertex="1">
          <mxGeometry y="60" width="200" height="30" as="geometry" />
        </mxCell>
        <mxCell id="4v4AGWWlLgVqddMLJCEB-53" value="title: varchar" style="text;strokeColor=none;fillColor=none;align=left;verticalAlign=middle;spacingLeft=4;spacingRight=4;overflow=hidden;points=[[0,0.5],[1,0.5]];portConstraint=eastwest;rotatable=0;whiteSpace=wrap;html=1;" parent="4v4AGWWlLgVqddMLJCEB-50" vertex="1">
          <mxGeometry y="90" width="200" height="30" as="geometry" />
        </mxCell>
        <mxCell id="kTSnjcyp7PbZxTP0yt8h-72" value="order: int" style="text;strokeColor=none;fillColor=none;align=left;verticalAlign=middle;spacingLeft=4;spacingRight=4;overflow=hidden;points=[[0,0.5],[1,0.5]];portConstraint=eastwest;rotatable=0;whiteSpace=wrap;html=1;" parent="4v4AGWWlLgVqddMLJCEB-50" vertex="1">
          <mxGeometry y="120" width="200" height="30" as="geometry" />
        </mxCell>
        <mxCell id="kTSnjcyp7PbZxTP0yt8h-81" value="description: TEXT" style="text;strokeColor=none;fillColor=none;align=left;verticalAlign=middle;spacingLeft=4;spacingRight=4;overflow=hidden;points=[[0,0.5],[1,0.5]];portConstraint=eastwest;rotatable=0;whiteSpace=wrap;html=1;" parent="4v4AGWWlLgVqddMLJCEB-50" vertex="1">
          <mxGeometry y="150" width="200" height="30" as="geometry" />
        </mxCell>
        <mxCell id="4v4AGWWlLgVqddMLJCEB-54" value="latitude: varchar" style="text;strokeColor=none;fillColor=none;align=left;verticalAlign=middle;spacingLeft=4;spacingRight=4;overflow=hidden;points=[[0,0.5],[1,0.5]];portConstraint=eastwest;rotatable=0;whiteSpace=wrap;html=1;" parent="4v4AGWWlLgVqddMLJCEB-50" vertex="1">
          <mxGeometry y="180" width="200" height="30" as="geometry" />
        </mxCell>
        <mxCell id="4v4AGWWlLgVqddMLJCEB-55" value="longitude: varchar" style="text;strokeColor=none;fillColor=none;align=left;verticalAlign=middle;spacingLeft=4;spacingRight=4;overflow=hidden;points=[[0,0.5],[1,0.5]];portConstraint=eastwest;rotatable=0;whiteSpace=wrap;html=1;" parent="4v4AGWWlLgVqddMLJCEB-50" vertex="1">
          <mxGeometry y="210" width="200" height="30" as="geometry" />
        </mxCell>
        <mxCell id="kTSnjcyp7PbZxTP0yt8h-59" value="img: TEXT" style="text;strokeColor=none;fillColor=none;align=left;verticalAlign=middle;spacingLeft=4;spacingRight=4;overflow=hidden;points=[[0,0.5],[1,0.5]];portConstraint=eastwest;rotatable=0;whiteSpace=wrap;html=1;" parent="4v4AGWWlLgVqddMLJCEB-50" vertex="1">
          <mxGeometry y="240" width="200" height="30" as="geometry" />
        </mxCell>
        <mxCell id="kTSnjcyp7PbZxTP0yt8h-86" value="publish: boolean default false" style="text;strokeColor=none;fillColor=none;align=left;verticalAlign=middle;spacingLeft=4;spacingRight=4;overflow=hidden;points=[[0,0.5],[1,0.5]];portConstraint=eastwest;rotatable=0;whiteSpace=wrap;html=1;" parent="4v4AGWWlLgVqddMLJCEB-50" vertex="1">
          <mxGeometry y="270" width="200" height="30" as="geometry" />
        </mxCell>
        <mxCell id="Cvizj9KR2Gh-5Ep8c4Go-47" style="edgeStyle=orthogonalEdgeStyle;rounded=0;orthogonalLoop=1;jettySize=auto;html=1;entryX=0.5;entryY=0;entryDx=0;entryDy=0;" parent="1" source="4v4AGWWlLgVqddMLJCEB-63" target="vZqE9rtirsH-dbJtb7xl-6" edge="1">
          <mxGeometry relative="1" as="geometry">
            <mxPoint x="-640" y="480" as="targetPoint" />
          </mxGeometry>
        </mxCell>
        <mxCell id="Cvizj9KR2Gh-5Ep8c4Go-48" style="edgeStyle=orthogonalEdgeStyle;rounded=0;orthogonalLoop=1;jettySize=auto;html=1;" parent="1" source="4v4AGWWlLgVqddMLJCEB-63" target="vZqE9rtirsH-dbJtb7xl-5" edge="1">
          <mxGeometry relative="1" as="geometry">
            <mxPoint x="-407" y="595" as="targetPoint" />
          </mxGeometry>
        </mxCell>
        <mxCell id="4v4AGWWlLgVqddMLJCEB-63" value="auth controller" style="rhombus;whiteSpace=wrap;html=1;fillColor=#d5e8d4;strokeColor=#82b366;" parent="1" vertex="1">
          <mxGeometry x="-521" y="230" width="174" height="120" as="geometry" />
        </mxCell>
        <mxCell id="4v4AGWWlLgVqddMLJCEB-72" value="" style="edgeStyle=orthogonalEdgeStyle;rounded=0;orthogonalLoop=1;jettySize=auto;html=1;entryX=0.442;entryY=0;entryDx=0;entryDy=0;entryPerimeter=0;" parent="1" source="4v4AGWWlLgVqddMLJCEB-69" target="kTSnjcyp7PbZxTP0yt8h-8" edge="1">
          <mxGeometry relative="1" as="geometry" />
        </mxCell>
        <mxCell id="kTSnjcyp7PbZxTP0yt8h-12" value="" style="edgeStyle=orthogonalEdgeStyle;rounded=0;orthogonalLoop=1;jettySize=auto;html=1;" parent="1" source="4v4AGWWlLgVqddMLJCEB-69" target="kTSnjcyp7PbZxTP0yt8h-10" edge="1">
          <mxGeometry relative="1" as="geometry" />
        </mxCell>
        <mxCell id="kTSnjcyp7PbZxTP0yt8h-20" style="edgeStyle=orthogonalEdgeStyle;rounded=0;orthogonalLoop=1;jettySize=auto;html=1;entryX=0.5;entryY=0;entryDx=0;entryDy=0;" parent="1" source="4v4AGWWlLgVqddMLJCEB-69" target="kTSnjcyp7PbZxTP0yt8h-19" edge="1">
          <mxGeometry relative="1" as="geometry" />
        </mxCell>
        <mxCell id="kTSnjcyp7PbZxTP0yt8h-73" style="edgeStyle=orthogonalEdgeStyle;rounded=0;orthogonalLoop=1;jettySize=auto;html=1;entryX=0.5;entryY=0;entryDx=0;entryDy=0;" parent="1" source="4v4AGWWlLgVqddMLJCEB-69" target="kTSnjcyp7PbZxTP0yt8h-43" edge="1">
          <mxGeometry relative="1" as="geometry" />
        </mxCell>
        <mxCell id="Cvizj9KR2Gh-5Ep8c4Go-51" style="edgeStyle=orthogonalEdgeStyle;rounded=0;orthogonalLoop=1;jettySize=auto;html=1;entryX=0.75;entryY=0;entryDx=0;entryDy=0;" parent="1" source="4v4AGWWlLgVqddMLJCEB-69" target="Cvizj9KR2Gh-5Ep8c4Go-49" edge="1">
          <mxGeometry relative="1" as="geometry" />
        </mxCell>
        <mxCell id="4v4AGWWlLgVqddMLJCEB-69" value="history controller" style="rhombus;whiteSpace=wrap;html=1;fillColor=#d5e8d4;strokeColor=#82b366;" parent="1" vertex="1">
          <mxGeometry x="870" y="380" width="174" height="120" as="geometry" />
        </mxCell>
        <mxCell id="9jWAlJ0byO7zGb7Tsrd4-2" value="" style="edgeStyle=orthogonalEdgeStyle;rounded=0;orthogonalLoop=1;jettySize=auto;html=1;" parent="1" source="4v4AGWWlLgVqddMLJCEB-71" target="9jWAlJ0byO7zGb7Tsrd4-1" edge="1">
          <mxGeometry relative="1" as="geometry" />
        </mxCell>
        <mxCell id="4v4AGWWlLgVqddMLJCEB-71" value="&lt;div&gt;Request&lt;/div&gt;&lt;div&gt;&lt;br&gt;&lt;/div&gt;&lt;div&gt;method: GET&lt;/div&gt;&lt;div&gt;&lt;span style=&quot;color: rgb(51, 51, 255); background-color: initial;&quot;&gt;url/api/v1/history&lt;/span&gt;?&lt;font color=&quot;#ff0000&quot;&gt;${city}&lt;/font&gt;&lt;br&gt;&lt;/div&gt;" style="whiteSpace=wrap;html=1;" parent="1" vertex="1">
          <mxGeometry x="660" y="680" width="150" height="72" as="geometry" />
        </mxCell>
        <mxCell id="4v4AGWWlLgVqddMLJCEB-75" value="user_history" style="swimlane;fontStyle=0;childLayout=stackLayout;horizontal=1;startSize=30;horizontalStack=0;resizeParent=1;resizeParentMax=0;resizeLast=0;collapsible=1;marginBottom=0;whiteSpace=wrap;html=1;" parent="1" vertex="1">
          <mxGeometry x="2010" y="-760" width="190" height="150" as="geometry" />
        </mxCell>
        <mxCell id="4v4AGWWlLgVqddMLJCEB-76" value="id: PK" style="text;strokeColor=none;fillColor=none;align=left;verticalAlign=middle;spacingLeft=4;spacingRight=4;overflow=hidden;points=[[0,0.5],[1,0.5]];portConstraint=eastwest;rotatable=0;whiteSpace=wrap;html=1;" parent="4v4AGWWlLgVqddMLJCEB-75" vertex="1">
          <mxGeometry y="30" width="190" height="30" as="geometry" />
        </mxCell>
        <mxCell id="4v4AGWWlLgVqddMLJCEB-77" value="user_id" style="text;strokeColor=none;fillColor=none;align=left;verticalAlign=middle;spacingLeft=4;spacingRight=4;overflow=hidden;points=[[0,0.5],[1,0.5]];portConstraint=eastwest;rotatable=0;whiteSpace=wrap;html=1;" parent="4v4AGWWlLgVqddMLJCEB-75" vertex="1">
          <mxGeometry y="60" width="190" height="30" as="geometry" />
        </mxCell>
        <mxCell id="vZqE9rtirsH-dbJtb7xl-1" value="history_id: PK" style="text;strokeColor=none;fillColor=none;align=left;verticalAlign=middle;spacingLeft=4;spacingRight=4;overflow=hidden;points=[[0,0.5],[1,0.5]];portConstraint=eastwest;rotatable=0;whiteSpace=wrap;html=1;" parent="4v4AGWWlLgVqddMLJCEB-75" vertex="1">
          <mxGeometry y="90" width="190" height="30" as="geometry" />
        </mxCell>
        <mxCell id="kTSnjcyp7PbZxTP0yt8h-122" value="&lt;font color=&quot;#ff0000&quot;&gt;complete: BOOLEAN&lt;/font&gt;" style="text;strokeColor=none;fillColor=none;align=left;verticalAlign=middle;spacingLeft=4;spacingRight=4;overflow=hidden;points=[[0,0.5],[1,0.5]];portConstraint=eastwest;rotatable=0;whiteSpace=wrap;html=1;" parent="4v4AGWWlLgVqddMLJCEB-75" vertex="1">
          <mxGeometry y="120" width="190" height="30" as="geometry" />
        </mxCell>
        <mxCell id="9jWAlJ0byO7zGb7Tsrd4-4" value="" style="edgeStyle=orthogonalEdgeStyle;rounded=0;orthogonalLoop=1;jettySize=auto;html=1;" parent="1" source="9jWAlJ0byO7zGb7Tsrd4-1" target="9jWAlJ0byO7zGb7Tsrd4-3" edge="1">
          <mxGeometry relative="1" as="geometry">
            <Array as="points">
              <mxPoint x="735" y="1060" />
            </Array>
          </mxGeometry>
        </mxCell>
        <mxCell id="9jWAlJ0byO7zGb7Tsrd4-1" value="&lt;div&gt;Response&lt;/div&gt;&lt;div&gt;&lt;br&gt;&lt;/div&gt;&lt;div&gt;LIst&amp;lt;History&amp;gt;&lt;br&gt;&lt;/div&gt;" style="whiteSpace=wrap;html=1;" parent="1" vertex="1">
          <mxGeometry x="675" y="870" width="120" height="60" as="geometry" />
        </mxCell>
        <mxCell id="9jWAlJ0byO7zGb7Tsrd4-3" value="&lt;div&gt;history{&lt;/div&gt;&lt;div&gt;id,&lt;/div&gt;&lt;div&gt;title,&lt;/div&gt;&lt;div&gt;synopsis,&lt;/div&gt;&lt;div&gt;&lt;span style=&quot;text-align: left;&quot;&gt;publish,&lt;/span&gt;&lt;/div&gt;&lt;div&gt;&lt;span style=&quot;text-align: left;&quot;&gt;img,&lt;/span&gt;&lt;/div&gt;&lt;div&gt;genre,&lt;/div&gt;&lt;div&gt;&lt;font color=&quot;#00ff00&quot;&gt;complete&lt;/font&gt;,&lt;/div&gt;&lt;div&gt;&lt;br&gt;&lt;/div&gt;&lt;div&gt;&lt;font color=&quot;#ff0000&quot;&gt;List&amp;lt;chapters&amp;gt; [&lt;/font&gt;&lt;/div&gt;&lt;div&gt;&lt;font color=&quot;#ff0000&quot;&gt;id,&lt;/font&gt;&lt;/div&gt;&lt;div&gt;&lt;font color=&quot;#ff0000&quot;&gt;title,&lt;/font&gt;&lt;/div&gt;&lt;div&gt;&lt;font color=&quot;#ff0000&quot;&gt;order,&lt;/font&gt;&lt;/div&gt;&lt;div&gt;&lt;font color=&quot;#ff0000&quot;&gt;img,&lt;/font&gt;&lt;/div&gt;&lt;div&gt;&lt;font color=&quot;#ff0000&quot;&gt;latidude,&lt;/font&gt;&lt;/div&gt;&lt;div&gt;&lt;font color=&quot;#ff0000&quot;&gt;longitude,&lt;/font&gt;&lt;/div&gt;&lt;div&gt;&lt;font color=&quot;#ff0000&quot;&gt;publish,&lt;/font&gt;&lt;/div&gt;&lt;div&gt;&lt;font color=&quot;#ff0000&quot;&gt;description&lt;/font&gt;&lt;/div&gt;&lt;div&gt;&lt;span style=&quot;color: rgb(0, 255, 0);&quot;&gt;complete&lt;/span&gt;&lt;/div&gt;&lt;div&gt;&lt;font color=&quot;#ff0000&quot;&gt;],&lt;/font&gt;&lt;/div&gt;&lt;div&gt;&lt;font color=&quot;#ff0000&quot;&gt;&lt;br&gt;&lt;/font&gt;&lt;/div&gt;&lt;div&gt;}&lt;/div&gt;" style="rounded=0;whiteSpace=wrap;html=1;" parent="1" vertex="1">
          <mxGeometry x="810" y="920" width="207" height="460" as="geometry" />
        </mxCell>
        <mxCell id="kTSnjcyp7PbZxTP0yt8h-7" value="&lt;div&gt;Request&lt;/div&gt;&lt;div&gt;&lt;br&gt;&lt;/div&gt;&lt;div&gt;method: PUT&lt;/div&gt;&lt;div&gt;&lt;span style=&quot;background-color: initial;&quot;&gt;&lt;font color=&quot;#3333ff&quot;&gt;url/api/v1/history&lt;/font&gt;&lt;/span&gt;?&lt;font color=&quot;#ff0000&quot;&gt;${id_history}&lt;/font&gt;&lt;br&gt;&lt;/div&gt;&lt;div&gt;&lt;font color=&quot;#ff0000&quot;&gt;&lt;br&gt;&lt;/font&gt;&lt;/div&gt;&lt;div&gt;body&amp;nbsp; {&lt;/div&gt;&lt;div&gt;&lt;div&gt;title,&lt;/div&gt;&lt;div&gt;synopsis,&lt;/div&gt;&lt;/div&gt;&lt;div&gt;img,&lt;/div&gt;&lt;div&gt;genre&lt;/div&gt;&lt;div&gt;}&lt;/div&gt;" style="whiteSpace=wrap;html=1;" parent="1" vertex="1">
          <mxGeometry x="894" y="680" width="196" height="190" as="geometry" />
        </mxCell>
        <mxCell id="kTSnjcyp7PbZxTP0yt8h-11" value="" style="edgeStyle=orthogonalEdgeStyle;rounded=0;orthogonalLoop=1;jettySize=auto;html=1;" parent="1" source="kTSnjcyp7PbZxTP0yt8h-8" target="4v4AGWWlLgVqddMLJCEB-71" edge="1">
          <mxGeometry relative="1" as="geometry" />
        </mxCell>
        <mxCell id="kTSnjcyp7PbZxTP0yt8h-8" value="obtener historias por la ciudad" style="whiteSpace=wrap;html=1;fillColor=#ffe6cc;strokeColor=#d79b00;" parent="1" vertex="1">
          <mxGeometry x="635" y="560" width="190" height="60" as="geometry" />
        </mxCell>
        <mxCell id="kTSnjcyp7PbZxTP0yt8h-18" value="" style="edgeStyle=orthogonalEdgeStyle;rounded=0;orthogonalLoop=1;jettySize=auto;html=1;" parent="1" source="kTSnjcyp7PbZxTP0yt8h-10" target="kTSnjcyp7PbZxTP0yt8h-7" edge="1">
          <mxGeometry relative="1" as="geometry" />
        </mxCell>
        <mxCell id="kTSnjcyp7PbZxTP0yt8h-10" value="modificar historia&amp;nbsp;" style="whiteSpace=wrap;html=1;fillColor=#ffe6cc;strokeColor=#d79b00;" parent="1" vertex="1">
          <mxGeometry x="897" y="560" width="120" height="60" as="geometry" />
        </mxCell>
        <mxCell id="kTSnjcyp7PbZxTP0yt8h-22" value="" style="edgeStyle=orthogonalEdgeStyle;rounded=0;orthogonalLoop=1;jettySize=auto;html=1;" parent="1" source="kTSnjcyp7PbZxTP0yt8h-19" target="kTSnjcyp7PbZxTP0yt8h-21" edge="1">
          <mxGeometry relative="1" as="geometry" />
        </mxCell>
        <mxCell id="kTSnjcyp7PbZxTP0yt8h-19" value="crear historia&amp;nbsp;" style="whiteSpace=wrap;html=1;fillColor=#ffe6cc;strokeColor=#d79b00;" parent="1" vertex="1">
          <mxGeometry x="1140" y="555" width="120" height="60" as="geometry" />
        </mxCell>
        <mxCell id="kTSnjcyp7PbZxTP0yt8h-21" value="&lt;div&gt;Request&lt;/div&gt;&lt;div&gt;&lt;br&gt;&lt;/div&gt;&lt;div&gt;method: POST&lt;/div&gt;&lt;div&gt;&lt;span style=&quot;color: rgb(51, 51, 255);&quot;&gt;url/api/v1/history&lt;/span&gt;&lt;/div&gt;&lt;div&gt;&lt;font color=&quot;#ff0000&quot;&gt;&lt;br&gt;&lt;/font&gt;&lt;/div&gt;&lt;div&gt;body&amp;nbsp; {&lt;/div&gt;&lt;div&gt;&lt;div&gt;title,&lt;/div&gt;&lt;div&gt;synopsis,&lt;/div&gt;&lt;/div&gt;&lt;div&gt;img,&lt;/div&gt;&lt;div&gt;genre&lt;/div&gt;&lt;div&gt;}&lt;/div&gt;" style="whiteSpace=wrap;html=1;" parent="1" vertex="1">
          <mxGeometry x="1125" y="680" width="150" height="190" as="geometry" />
        </mxCell>
        <mxCell id="kTSnjcyp7PbZxTP0yt8h-31" value="" style="edgeStyle=orthogonalEdgeStyle;rounded=0;orthogonalLoop=1;jettySize=auto;html=1;" parent="1" source="kTSnjcyp7PbZxTP0yt8h-24" target="kTSnjcyp7PbZxTP0yt8h-26" edge="1">
          <mxGeometry relative="1" as="geometry" />
        </mxCell>
        <mxCell id="kTSnjcyp7PbZxTP0yt8h-24" value="publicar historia&amp;nbsp;" style="whiteSpace=wrap;html=1;fillColor=#ffe6cc;strokeColor=#d79b00;" parent="1" vertex="1">
          <mxGeometry x="1330" y="555" width="120" height="60" as="geometry" />
        </mxCell>
        <mxCell id="kTSnjcyp7PbZxTP0yt8h-25" style="edgeStyle=orthogonalEdgeStyle;rounded=0;orthogonalLoop=1;jettySize=auto;html=1;exitX=1;exitY=0.5;exitDx=0;exitDy=0;entryX=0.6;entryY=0.017;entryDx=0;entryDy=0;entryPerimeter=0;" parent="1" source="4v4AGWWlLgVqddMLJCEB-69" target="kTSnjcyp7PbZxTP0yt8h-24" edge="1">
          <mxGeometry relative="1" as="geometry">
            <Array as="points">
              <mxPoint x="1402" y="440" />
            </Array>
          </mxGeometry>
        </mxCell>
        <mxCell id="kTSnjcyp7PbZxTP0yt8h-34" style="edgeStyle=orthogonalEdgeStyle;rounded=0;orthogonalLoop=1;jettySize=auto;html=1;entryX=1;entryY=0.75;entryDx=0;entryDy=0;" parent="1" source="kTSnjcyp7PbZxTP0yt8h-26" target="9jWAlJ0byO7zGb7Tsrd4-3" edge="1">
          <mxGeometry relative="1" as="geometry">
            <Array as="points">
              <mxPoint x="1430" y="1113" />
            </Array>
          </mxGeometry>
        </mxCell>
        <mxCell id="kTSnjcyp7PbZxTP0yt8h-26" value="&lt;div&gt;Request&lt;/div&gt;&lt;div&gt;&lt;br&gt;&lt;/div&gt;&lt;div&gt;method: PATCH&lt;/div&gt;&lt;div&gt;&lt;span style=&quot;color: rgb(51, 51, 255);&quot;&gt;url/api/v1/history&lt;/span&gt;&lt;span style=&quot;background-color: initial;&quot;&gt;?&lt;/span&gt;&lt;font style=&quot;background-color: initial;&quot; color=&quot;#ff0000&quot;&gt;${id_history}&lt;/font&gt;&lt;/div&gt;&lt;div&gt;&lt;br&gt;&lt;/div&gt;" style="whiteSpace=wrap;html=1;" parent="1" vertex="1">
          <mxGeometry x="1330" y="675" width="190" height="190" as="geometry" />
        </mxCell>
        <mxCell id="kTSnjcyp7PbZxTP0yt8h-32" style="edgeStyle=orthogonalEdgeStyle;rounded=0;orthogonalLoop=1;jettySize=auto;html=1;entryX=1.006;entryY=0.7;entryDx=0;entryDy=0;entryPerimeter=0;" parent="1" source="kTSnjcyp7PbZxTP0yt8h-7" target="9jWAlJ0byO7zGb7Tsrd4-3" edge="1">
          <mxGeometry relative="1" as="geometry">
            <Array as="points">
              <mxPoint x="1070" y="1105" />
              <mxPoint x="1018" y="1105" />
            </Array>
          </mxGeometry>
        </mxCell>
        <mxCell id="kTSnjcyp7PbZxTP0yt8h-38" value="" style="edgeStyle=orthogonalEdgeStyle;rounded=0;orthogonalLoop=1;jettySize=auto;html=1;" parent="1" source="kTSnjcyp7PbZxTP0yt8h-35" target="kTSnjcyp7PbZxTP0yt8h-37" edge="1">
          <mxGeometry relative="1" as="geometry" />
        </mxCell>
        <mxCell id="kTSnjcyp7PbZxTP0yt8h-35" value="eliminar historia&amp;nbsp;" style="whiteSpace=wrap;html=1;fillColor=#ffe6cc;strokeColor=#d79b00;" parent="1" vertex="1">
          <mxGeometry x="1600" y="560" width="120" height="60" as="geometry" />
        </mxCell>
        <mxCell id="kTSnjcyp7PbZxTP0yt8h-36" style="edgeStyle=orthogonalEdgeStyle;rounded=0;orthogonalLoop=1;jettySize=auto;html=1;entryX=0.575;entryY=-0.017;entryDx=0;entryDy=0;entryPerimeter=0;" parent="1" source="4v4AGWWlLgVqddMLJCEB-69" target="kTSnjcyp7PbZxTP0yt8h-35" edge="1">
          <mxGeometry relative="1" as="geometry" />
        </mxCell>
        <mxCell id="kTSnjcyp7PbZxTP0yt8h-40" value="" style="edgeStyle=orthogonalEdgeStyle;rounded=0;orthogonalLoop=1;jettySize=auto;html=1;" parent="1" source="kTSnjcyp7PbZxTP0yt8h-37" target="kTSnjcyp7PbZxTP0yt8h-39" edge="1">
          <mxGeometry relative="1" as="geometry" />
        </mxCell>
        <mxCell id="kTSnjcyp7PbZxTP0yt8h-37" value="&lt;div&gt;Request&lt;/div&gt;&lt;div&gt;&lt;br&gt;&lt;/div&gt;&lt;div&gt;method: DELETE&lt;/div&gt;&lt;div&gt;&lt;span style=&quot;color: rgb(51, 51, 255);&quot;&gt;url/api/v1/history&lt;/span&gt;&lt;span style=&quot;background-color: initial;&quot;&gt;?&lt;/span&gt;&lt;font style=&quot;background-color: initial;&quot; color=&quot;#ff0000&quot;&gt;${id_history}&lt;/font&gt;&lt;/div&gt;&lt;div&gt;&lt;br&gt;&lt;/div&gt;" style="whiteSpace=wrap;html=1;" parent="1" vertex="1">
          <mxGeometry x="1580" y="672.5" width="190" height="190" as="geometry" />
        </mxCell>
        <mxCell id="kTSnjcyp7PbZxTP0yt8h-39" value="Response 202" style="whiteSpace=wrap;html=1;" parent="1" vertex="1">
          <mxGeometry x="1570" y="1000" width="120" height="60" as="geometry" />
        </mxCell>
        <mxCell id="kTSnjcyp7PbZxTP0yt8h-54" style="edgeStyle=orthogonalEdgeStyle;rounded=0;orthogonalLoop=1;jettySize=auto;html=1;" parent="1" source="kTSnjcyp7PbZxTP0yt8h-41" target="kTSnjcyp7PbZxTP0yt8h-47" edge="1">
          <mxGeometry relative="1" as="geometry" />
        </mxCell>
        <mxCell id="kTSnjcyp7PbZxTP0yt8h-66" style="edgeStyle=orthogonalEdgeStyle;rounded=0;orthogonalLoop=1;jettySize=auto;html=1;" parent="1" source="kTSnjcyp7PbZxTP0yt8h-41" target="kTSnjcyp7PbZxTP0yt8h-60" edge="1">
          <mxGeometry relative="1" as="geometry" />
        </mxCell>
        <mxCell id="kTSnjcyp7PbZxTP0yt8h-41" value="chapter controller" style="rhombus;whiteSpace=wrap;html=1;fillColor=#d5e8d4;strokeColor=#82b366;" parent="1" vertex="1">
          <mxGeometry x="2420" y="370" width="174" height="120" as="geometry" />
        </mxCell>
        <mxCell id="kTSnjcyp7PbZxTP0yt8h-45" value="" style="edgeStyle=orthogonalEdgeStyle;rounded=0;orthogonalLoop=1;jettySize=auto;html=1;" parent="1" source="kTSnjcyp7PbZxTP0yt8h-43" target="kTSnjcyp7PbZxTP0yt8h-44" edge="1">
          <mxGeometry relative="1" as="geometry" />
        </mxCell>
        <mxCell id="kTSnjcyp7PbZxTP0yt8h-43" value="obtener historias por user writter" style="whiteSpace=wrap;html=1;fillColor=#ffe6cc;strokeColor=#d79b00;" parent="1" vertex="1">
          <mxGeometry x="420" y="560" width="170" height="60" as="geometry" />
        </mxCell>
        <mxCell id="kTSnjcyp7PbZxTP0yt8h-46" style="edgeStyle=orthogonalEdgeStyle;rounded=0;orthogonalLoop=1;jettySize=auto;html=1;entryX=0;entryY=0.75;entryDx=0;entryDy=0;" parent="1" source="kTSnjcyp7PbZxTP0yt8h-44" target="9jWAlJ0byO7zGb7Tsrd4-1" edge="1">
          <mxGeometry relative="1" as="geometry">
            <Array as="points">
              <mxPoint x="525" y="885" />
            </Array>
          </mxGeometry>
        </mxCell>
        <mxCell id="kTSnjcyp7PbZxTP0yt8h-44" value="&lt;div&gt;Request&lt;/div&gt;&lt;div&gt;&lt;br&gt;&lt;/div&gt;&lt;div&gt;method: GET&lt;/div&gt;&lt;div&gt;&lt;span style=&quot;color: rgb(51, 51, 255); background-color: initial;&quot;&gt;url/api/v1/history&lt;/span&gt;&lt;span style=&quot;background-color: initial;&quot;&gt;/&lt;font color=&quot;#cc00cc&quot;&gt;writter&lt;/font&gt;/?&lt;/span&gt;&lt;font color=&quot;#ff0000&quot;&gt;${user_id}&lt;/font&gt;&lt;br&gt;&lt;/div&gt;" style="whiteSpace=wrap;html=1;" parent="1" vertex="1">
          <mxGeometry x="420" y="680" width="210" height="72" as="geometry" />
        </mxCell>
        <mxCell id="kTSnjcyp7PbZxTP0yt8h-50" value="" style="edgeStyle=orthogonalEdgeStyle;rounded=0;orthogonalLoop=1;jettySize=auto;html=1;" parent="1" source="kTSnjcyp7PbZxTP0yt8h-47" target="kTSnjcyp7PbZxTP0yt8h-49" edge="1">
          <mxGeometry relative="1" as="geometry" />
        </mxCell>
        <mxCell id="kTSnjcyp7PbZxTP0yt8h-47" value="crear chapter" style="whiteSpace=wrap;html=1;fillColor=#ffe6cc;strokeColor=#d79b00;" parent="1" vertex="1">
          <mxGeometry x="2190" y="560" width="120" height="60" as="geometry" />
        </mxCell>
        <mxCell id="kTSnjcyp7PbZxTP0yt8h-52" style="edgeStyle=orthogonalEdgeStyle;rounded=0;orthogonalLoop=1;jettySize=auto;html=1;" parent="1" source="kTSnjcyp7PbZxTP0yt8h-49" target="kTSnjcyp7PbZxTP0yt8h-51" edge="1">
          <mxGeometry relative="1" as="geometry">
            <Array as="points">
              <mxPoint x="2240" y="1010" />
            </Array>
          </mxGeometry>
        </mxCell>
        <mxCell id="kTSnjcyp7PbZxTP0yt8h-49" value="&lt;div&gt;Request&lt;/div&gt;&lt;div&gt;&lt;br&gt;&lt;/div&gt;&lt;div&gt;method: POST&lt;/div&gt;&lt;div&gt;&lt;span style=&quot;color: rgb(51, 51, 255);&quot;&gt;url/api/v1/chapter&lt;/span&gt;&lt;/div&gt;&lt;div&gt;&lt;span style=&quot;color: rgb(51, 51, 255);&quot;&gt;&lt;br&gt;&lt;/span&gt;&lt;/div&gt;&lt;div&gt;body {&lt;/div&gt;&lt;div&gt;&lt;span style=&quot;text-align: left;&quot;&gt;history_id,&lt;/span&gt;&lt;/div&gt;&lt;div&gt;&lt;span style=&quot;text-align: left;&quot;&gt;title,&lt;/span&gt;&lt;/div&gt;&lt;div&gt;&lt;span style=&quot;text-align: left;&quot;&gt;order,&lt;/span&gt;&lt;/div&gt;&lt;div&gt;&lt;span style=&quot;text-align: left;&quot;&gt;latitude,&lt;/span&gt;&lt;/div&gt;&lt;div style=&quot;text-align: left;&quot;&gt;&lt;span style=&quot;background-color: initial;&quot;&gt;&amp;nbsp; &amp;nbsp; &amp;nbsp; &amp;nbsp; &amp;nbsp;longitude,&lt;/span&gt;&lt;/div&gt;&lt;div style=&quot;text-align: left;&quot;&gt;description,&lt;span style=&quot;background-color: initial;&quot;&gt;&lt;/span&gt;&lt;/div&gt;&lt;div style=&quot;text-align: left;&quot;&gt;&lt;span style=&quot;background-color: initial;&quot;&gt;&amp;nbsp; &amp;nbsp; &amp;nbsp; &amp;nbsp; &amp;nbsp; img&lt;/span&gt;&lt;/div&gt;&lt;div style=&quot;text-align: left;&quot;&gt;&lt;span style=&quot;background-color: initial;&quot;&gt;}&lt;/span&gt;&lt;/div&gt;" style="whiteSpace=wrap;html=1;" parent="1" vertex="1">
          <mxGeometry x="2150" y="675" width="200" height="215" as="geometry" />
        </mxCell>
        <mxCell id="kTSnjcyp7PbZxTP0yt8h-51" value="&lt;div&gt;Response&lt;/div&gt;&lt;div&gt;&lt;br&gt;&lt;/div&gt;&lt;div&gt;&lt;span style=&quot;color: rgb(51, 51, 255);&quot;&gt;&lt;br&gt;&lt;/span&gt;&lt;/div&gt;&lt;div&gt;body {&lt;/div&gt;&lt;div&gt;id,&lt;/div&gt;&lt;div&gt;&lt;span style=&quot;text-align: left;&quot;&gt;history_id,&lt;/span&gt;&lt;/div&gt;&lt;div&gt;&lt;div&gt;&lt;span style=&quot;text-align: left;&quot;&gt;title,&lt;/span&gt;&lt;/div&gt;&lt;div&gt;&lt;span style=&quot;text-align: left;&quot;&gt;order,&lt;/span&gt;&lt;/div&gt;&lt;div&gt;&lt;div style=&quot;text-align: left;&quot;&gt;description,&lt;/div&gt;&lt;/div&gt;&lt;div&gt;&lt;span style=&quot;text-align: left;&quot;&gt;latitude,&lt;/span&gt;&lt;/div&gt;&lt;div style=&quot;text-align: left;&quot;&gt;&lt;span style=&quot;background-color: initial;&quot;&gt;&amp;nbsp; &amp;nbsp; &amp;nbsp; &amp;nbsp; longitude,&lt;/span&gt;&lt;/div&gt;&lt;div style=&quot;text-align: left;&quot;&gt;&lt;span style=&quot;background-color: initial;&quot;&gt;&amp;nbsp; &amp;nbsp; &amp;nbsp; &amp;nbsp; &amp;nbsp;img,&lt;/span&gt;&lt;/div&gt;&lt;/div&gt;&lt;div style=&quot;text-align: left;&quot;&gt;&lt;span style=&quot;background-color: initial;&quot;&gt;&amp;nbsp; &amp;nbsp; &amp;nbsp; publish&lt;/span&gt;&lt;/div&gt;&lt;div style=&quot;text-align: left;&quot;&gt;&lt;span style=&quot;background-color: initial;&quot;&gt;&amp;nbsp; &amp;nbsp; &amp;nbsp; &amp;nbsp; &amp;nbsp; }&lt;/span&gt;&lt;/div&gt;" style="whiteSpace=wrap;html=1;" parent="1" vertex="1">
          <mxGeometry x="2310" y="979" width="190" height="211" as="geometry" />
        </mxCell>
        <mxCell id="kTSnjcyp7PbZxTP0yt8h-57" value="" style="edgeStyle=orthogonalEdgeStyle;rounded=0;orthogonalLoop=1;jettySize=auto;html=1;" parent="1" source="kTSnjcyp7PbZxTP0yt8h-53" target="kTSnjcyp7PbZxTP0yt8h-56" edge="1">
          <mxGeometry relative="1" as="geometry" />
        </mxCell>
        <mxCell id="kTSnjcyp7PbZxTP0yt8h-53" value="modificar chapter" style="whiteSpace=wrap;html=1;fillColor=#ffe6cc;strokeColor=#d79b00;" parent="1" vertex="1">
          <mxGeometry x="2410" y="560" width="120" height="60" as="geometry" />
        </mxCell>
        <mxCell id="kTSnjcyp7PbZxTP0yt8h-55" style="edgeStyle=orthogonalEdgeStyle;rounded=0;orthogonalLoop=1;jettySize=auto;html=1;exitX=0.5;exitY=1;exitDx=0;exitDy=0;entryX=0.589;entryY=0.033;entryDx=0;entryDy=0;entryPerimeter=0;" parent="1" source="kTSnjcyp7PbZxTP0yt8h-41" target="kTSnjcyp7PbZxTP0yt8h-53" edge="1">
          <mxGeometry relative="1" as="geometry" />
        </mxCell>
        <mxCell id="kTSnjcyp7PbZxTP0yt8h-65" value="" style="edgeStyle=orthogonalEdgeStyle;rounded=0;orthogonalLoop=1;jettySize=auto;html=1;" parent="1" source="kTSnjcyp7PbZxTP0yt8h-56" target="kTSnjcyp7PbZxTP0yt8h-51" edge="1">
          <mxGeometry relative="1" as="geometry" />
        </mxCell>
        <mxCell id="kTSnjcyp7PbZxTP0yt8h-56" value="&lt;div&gt;Request&lt;/div&gt;&lt;div&gt;&lt;br&gt;&lt;/div&gt;&lt;div&gt;method: PUT&lt;/div&gt;&lt;div&gt;&lt;span style=&quot;color: rgb(51, 51, 255);&quot;&gt;url/api/v1/chapter&lt;/span&gt;&lt;span style=&quot;background-color: initial;&quot;&gt;?&lt;/span&gt;&lt;font style=&quot;background-color: initial;&quot; color=&quot;#ff0000&quot;&gt;${id_chapter}&lt;/font&gt;&lt;/div&gt;&lt;div&gt;&lt;br&gt;&lt;/div&gt;&lt;div&gt;&lt;span style=&quot;color: rgb(51, 51, 255);&quot;&gt;&lt;br&gt;&lt;/span&gt;&lt;/div&gt;&lt;div&gt;body {&lt;/div&gt;&lt;div&gt;&lt;div&gt;&lt;span style=&quot;text-align: left;&quot;&gt;title,&lt;/span&gt;&lt;/div&gt;&lt;div&gt;&lt;span style=&quot;text-align: left;&quot;&gt;order,&lt;/span&gt;&lt;/div&gt;&lt;div&gt;&lt;div style=&quot;text-align: left;&quot;&gt;&amp;nbsp; &amp;nbsp; &amp;nbsp; &amp;nbsp; &amp;nbsp; &amp;nbsp; &amp;nbsp; &amp;nbsp; &amp;nbsp; &amp;nbsp; description,&lt;/div&gt;&lt;/div&gt;&lt;div&gt;&lt;span style=&quot;text-align: left;&quot;&gt;latitude,&lt;/span&gt;&lt;/div&gt;&lt;div style=&quot;text-align: left;&quot;&gt;&lt;span style=&quot;background-color: initial;&quot;&gt;&amp;nbsp; &amp;nbsp; &amp;nbsp; &amp;nbsp; &amp;nbsp; &amp;nbsp; &amp;nbsp; &amp;nbsp; &amp;nbsp; &amp;nbsp; &amp;nbsp; longitude,&lt;/span&gt;&lt;/div&gt;&lt;div style=&quot;text-align: left;&quot;&gt;&lt;span style=&quot;background-color: initial;&quot;&gt;&amp;nbsp; &amp;nbsp; &amp;nbsp; &amp;nbsp; &amp;nbsp; &amp;nbsp; &amp;nbsp; &amp;nbsp; &amp;nbsp; &amp;nbsp; &amp;nbsp; img&lt;/span&gt;&lt;/div&gt;&lt;/div&gt;&lt;div style=&quot;text-align: left;&quot;&gt;&lt;span style=&quot;background-color: initial;&quot;&gt;&amp;nbsp; &amp;nbsp; &amp;nbsp; &amp;nbsp; &amp;nbsp; &amp;nbsp; &amp;nbsp; &amp;nbsp; &amp;nbsp; &amp;nbsp; &amp;nbsp; &amp;nbsp;}&lt;/span&gt;&lt;/div&gt;" style="whiteSpace=wrap;html=1;" parent="1" vertex="1">
          <mxGeometry x="2373" y="672.5" width="194" height="200" as="geometry" />
        </mxCell>
        <mxCell id="kTSnjcyp7PbZxTP0yt8h-68" value="" style="edgeStyle=orthogonalEdgeStyle;rounded=0;orthogonalLoop=1;jettySize=auto;html=1;" parent="1" source="kTSnjcyp7PbZxTP0yt8h-60" target="kTSnjcyp7PbZxTP0yt8h-67" edge="1">
          <mxGeometry relative="1" as="geometry" />
        </mxCell>
        <mxCell id="kTSnjcyp7PbZxTP0yt8h-60" value="eliminar chapter" style="whiteSpace=wrap;html=1;fillColor=#ffe6cc;strokeColor=#d79b00;" parent="1" vertex="1">
          <mxGeometry x="2910" y="562.5" width="120" height="60" as="geometry" />
        </mxCell>
        <mxCell id="kTSnjcyp7PbZxTP0yt8h-70" value="" style="edgeStyle=orthogonalEdgeStyle;rounded=0;orthogonalLoop=1;jettySize=auto;html=1;" parent="1" source="kTSnjcyp7PbZxTP0yt8h-67" target="kTSnjcyp7PbZxTP0yt8h-69" edge="1">
          <mxGeometry relative="1" as="geometry" />
        </mxCell>
        <mxCell id="kTSnjcyp7PbZxTP0yt8h-67" value="&lt;div&gt;Request&lt;/div&gt;&lt;div&gt;&lt;br&gt;&lt;/div&gt;&lt;div&gt;method: DELETE&lt;/div&gt;&lt;div&gt;&lt;span style=&quot;color: rgb(51, 51, 255);&quot;&gt;url/api/v1/chapter&lt;/span&gt;&lt;span style=&quot;background-color: initial;&quot;&gt;?&lt;/span&gt;&lt;font style=&quot;background-color: initial;&quot; color=&quot;#ff0000&quot;&gt;${id_chapter}&lt;/font&gt;&lt;/div&gt;&lt;div&gt;&lt;br&gt;&lt;/div&gt;&lt;div&gt;&lt;span style=&quot;color: rgb(51, 51, 255);&quot;&gt;&lt;br&gt;&lt;/span&gt;&lt;/div&gt;&lt;div&gt;&lt;br&gt;&lt;/div&gt;" style="whiteSpace=wrap;html=1;" parent="1" vertex="1">
          <mxGeometry x="2870" y="667.5" width="194" height="205" as="geometry" />
        </mxCell>
        <mxCell id="kTSnjcyp7PbZxTP0yt8h-69" value="Response&lt;div&gt;204&lt;/div&gt;" style="whiteSpace=wrap;html=1;" parent="1" vertex="1">
          <mxGeometry x="2907" y="942.5" width="120" height="60" as="geometry" />
        </mxCell>
        <mxCell id="kTSnjcyp7PbZxTP0yt8h-71" style="edgeStyle=orthogonalEdgeStyle;rounded=0;orthogonalLoop=1;jettySize=auto;html=1;entryX=0.995;entryY=0.599;entryDx=0;entryDy=0;entryPerimeter=0;" parent="1" source="kTSnjcyp7PbZxTP0yt8h-21" target="9jWAlJ0byO7zGb7Tsrd4-3" edge="1">
          <mxGeometry relative="1" as="geometry">
            <Array as="points">
              <mxPoint x="1180" y="1110" />
              <mxPoint x="1016" y="1110" />
            </Array>
          </mxGeometry>
        </mxCell>
        <mxCell id="4v4AGWWlLgVqddMLJCEB-45" value="history" style="swimlane;fontStyle=0;childLayout=stackLayout;horizontal=1;startSize=30;horizontalStack=0;resizeParent=1;resizeParentMax=0;resizeLast=0;collapsible=1;marginBottom=0;whiteSpace=wrap;html=1;" parent="1" vertex="1">
          <mxGeometry x="1660" y="-660" width="200" height="270" as="geometry" />
        </mxCell>
        <mxCell id="4v4AGWWlLgVqddMLJCEB-46" value="id: PK" style="text;strokeColor=none;fillColor=none;align=left;verticalAlign=middle;spacingLeft=4;spacingRight=4;overflow=hidden;points=[[0,0.5],[1,0.5]];portConstraint=eastwest;rotatable=0;whiteSpace=wrap;html=1;" parent="4v4AGWWlLgVqddMLJCEB-45" vertex="1">
          <mxGeometry y="30" width="200" height="30" as="geometry" />
        </mxCell>
        <mxCell id="4v4AGWWlLgVqddMLJCEB-47" value="title: varchar" style="text;strokeColor=none;fillColor=none;align=left;verticalAlign=middle;spacingLeft=4;spacingRight=4;overflow=hidden;points=[[0,0.5],[1,0.5]];portConstraint=eastwest;rotatable=0;whiteSpace=wrap;html=1;" parent="4v4AGWWlLgVqddMLJCEB-45" vertex="1">
          <mxGeometry y="60" width="200" height="30" as="geometry" />
        </mxCell>
        <mxCell id="4v4AGWWlLgVqddMLJCEB-57" value="synopsis: varchar" style="text;strokeColor=none;fillColor=none;align=left;verticalAlign=middle;spacingLeft=4;spacingRight=4;overflow=hidden;points=[[0,0.5],[1,0.5]];portConstraint=eastwest;rotatable=0;whiteSpace=wrap;html=1;" parent="4v4AGWWlLgVqddMLJCEB-45" vertex="1">
          <mxGeometry y="90" width="200" height="30" as="geometry" />
        </mxCell>
        <mxCell id="kTSnjcyp7PbZxTP0yt8h-23" value="publish: boolean default false" style="text;strokeColor=none;fillColor=none;align=left;verticalAlign=middle;spacingLeft=4;spacingRight=4;overflow=hidden;points=[[0,0.5],[1,0.5]];portConstraint=eastwest;rotatable=0;whiteSpace=wrap;html=1;" parent="4v4AGWWlLgVqddMLJCEB-45" vertex="1">
          <mxGeometry y="120" width="200" height="30" as="geometry" />
        </mxCell>
        <mxCell id="4v4AGWWlLgVqddMLJCEB-62" value="creator_user: FK" style="text;strokeColor=none;fillColor=none;align=left;verticalAlign=middle;spacingLeft=4;spacingRight=4;overflow=hidden;points=[[0,0.5],[1,0.5]];portConstraint=eastwest;rotatable=0;whiteSpace=wrap;html=1;" parent="4v4AGWWlLgVqddMLJCEB-45" vertex="1">
          <mxGeometry y="150" width="200" height="30" as="geometry" />
        </mxCell>
        <mxCell id="kTSnjcyp7PbZxTP0yt8h-97" value="genre: ENUM()" style="text;strokeColor=none;fillColor=none;align=left;verticalAlign=middle;spacingLeft=4;spacingRight=4;overflow=hidden;points=[[0,0.5],[1,0.5]];portConstraint=eastwest;rotatable=0;whiteSpace=wrap;html=1;" parent="4v4AGWWlLgVqddMLJCEB-45" vertex="1">
          <mxGeometry y="180" width="200" height="30" as="geometry" />
        </mxCell>
        <mxCell id="kTSnjcyp7PbZxTP0yt8h-58" value="img: TEXT" style="text;strokeColor=none;fillColor=none;align=left;verticalAlign=middle;spacingLeft=4;spacingRight=4;overflow=hidden;points=[[0,0.5],[1,0.5]];portConstraint=eastwest;rotatable=0;whiteSpace=wrap;html=1;" parent="4v4AGWWlLgVqddMLJCEB-45" vertex="1">
          <mxGeometry y="210" width="200" height="30" as="geometry" />
        </mxCell>
        <mxCell id="BAwS0Nd3ZvO8XFaEo_h9-11" value="country_id: FK()" style="text;strokeColor=#82b366;fillColor=#d5e8d4;align=left;verticalAlign=middle;spacingLeft=4;spacingRight=4;overflow=hidden;points=[[0,0.5],[1,0.5]];portConstraint=eastwest;rotatable=0;whiteSpace=wrap;html=1;" vertex="1" parent="4v4AGWWlLgVqddMLJCEB-45">
          <mxGeometry y="240" width="200" height="30" as="geometry" />
        </mxCell>
        <mxCell id="kTSnjcyp7PbZxTP0yt8h-90" value="" style="edgeStyle=orthogonalEdgeStyle;rounded=0;orthogonalLoop=1;jettySize=auto;html=1;" parent="1" source="kTSnjcyp7PbZxTP0yt8h-87" target="kTSnjcyp7PbZxTP0yt8h-89" edge="1">
          <mxGeometry relative="1" as="geometry" />
        </mxCell>
        <mxCell id="kTSnjcyp7PbZxTP0yt8h-87" value="obtener historias por user reader" style="whiteSpace=wrap;html=1;fillColor=#ffe6cc;strokeColor=#d79b00;" parent="1" vertex="1">
          <mxGeometry x="210" y="560" width="170" height="60" as="geometry" />
        </mxCell>
        <mxCell id="kTSnjcyp7PbZxTP0yt8h-91" style="edgeStyle=orthogonalEdgeStyle;rounded=0;orthogonalLoop=1;jettySize=auto;html=1;entryX=0;entryY=0.75;entryDx=0;entryDy=0;" parent="1" source="kTSnjcyp7PbZxTP0yt8h-89" target="9jWAlJ0byO7zGb7Tsrd4-1" edge="1">
          <mxGeometry relative="1" as="geometry">
            <Array as="points">
              <mxPoint x="270" y="885" />
            </Array>
          </mxGeometry>
        </mxCell>
        <mxCell id="kTSnjcyp7PbZxTP0yt8h-89" value="&lt;div&gt;Request&lt;/div&gt;&lt;div&gt;&lt;br&gt;&lt;/div&gt;&lt;div&gt;method: GET&lt;/div&gt;&lt;div&gt;&lt;span style=&quot;color: rgb(51, 51, 255); background-color: initial;&quot;&gt;url/api/v1/history&lt;/span&gt;&lt;span style=&quot;background-color: initial;&quot;&gt;/&lt;font color=&quot;#cc00cc&quot;&gt;reader&lt;/font&gt;/?&lt;/span&gt;&lt;font color=&quot;#ff0000&quot;&gt;${user_id}&lt;/font&gt;&lt;br&gt;&lt;/div&gt;" style="whiteSpace=wrap;html=1;" parent="1" vertex="1">
          <mxGeometry x="190" y="690" width="210" height="72" as="geometry" />
        </mxCell>
        <mxCell id="kTSnjcyp7PbZxTP0yt8h-108" style="edgeStyle=orthogonalEdgeStyle;rounded=0;orthogonalLoop=1;jettySize=auto;html=1;" parent="1" source="4v4AGWWlLgVqddMLJCEB-69" edge="1">
          <mxGeometry relative="1" as="geometry">
            <mxPoint x="664" y="440" as="sourcePoint" />
            <mxPoint x="300" y="560" as="targetPoint" />
          </mxGeometry>
        </mxCell>
        <mxCell id="kTSnjcyp7PbZxTP0yt8h-109" value="solo los history que posean el complete en true, los chapter en true y los page en true" style="whiteSpace=wrap;html=1;rounded=0;fillColor=#e1d5e7;strokeColor=#9673a6;" parent="1" vertex="1">
          <mxGeometry x="190" y="805" width="200" height="60" as="geometry" />
        </mxCell>
        <mxCell id="kTSnjcyp7PbZxTP0yt8h-112" value="user_chapter" style="swimlane;fontStyle=0;childLayout=stackLayout;horizontal=1;startSize=30;horizontalStack=0;resizeParent=1;resizeParentMax=0;resizeLast=0;collapsible=1;marginBottom=0;whiteSpace=wrap;html=1;" parent="1" vertex="1">
          <mxGeometry x="2090" y="-490" width="190" height="150" as="geometry" />
        </mxCell>
        <mxCell id="kTSnjcyp7PbZxTP0yt8h-113" value="id: PK" style="text;strokeColor=none;fillColor=none;align=left;verticalAlign=middle;spacingLeft=4;spacingRight=4;overflow=hidden;points=[[0,0.5],[1,0.5]];portConstraint=eastwest;rotatable=0;whiteSpace=wrap;html=1;" parent="kTSnjcyp7PbZxTP0yt8h-112" vertex="1">
          <mxGeometry y="30" width="190" height="30" as="geometry" />
        </mxCell>
        <mxCell id="kTSnjcyp7PbZxTP0yt8h-114" value="&lt;span style=&quot;text-align: center;&quot;&gt;user_history_id: FK&lt;/span&gt;" style="text;strokeColor=none;fillColor=none;align=left;verticalAlign=middle;spacingLeft=4;spacingRight=4;overflow=hidden;points=[[0,0.5],[1,0.5]];portConstraint=eastwest;rotatable=0;whiteSpace=wrap;html=1;" parent="kTSnjcyp7PbZxTP0yt8h-112" vertex="1">
          <mxGeometry y="60" width="190" height="30" as="geometry" />
        </mxCell>
        <mxCell id="vZqE9rtirsH-dbJtb7xl-3" value="&lt;span style=&quot;text-align: center;&quot;&gt;chapter_id: FK&lt;/span&gt;" style="text;strokeColor=none;fillColor=none;align=left;verticalAlign=middle;spacingLeft=4;spacingRight=4;overflow=hidden;points=[[0,0.5],[1,0.5]];portConstraint=eastwest;rotatable=0;whiteSpace=wrap;html=1;" parent="kTSnjcyp7PbZxTP0yt8h-112" vertex="1">
          <mxGeometry y="90" width="190" height="30" as="geometry" />
        </mxCell>
        <mxCell id="kTSnjcyp7PbZxTP0yt8h-121" value="&lt;font color=&quot;#ff0000&quot;&gt;complete: BOOLEAN&lt;/font&gt;" style="text;strokeColor=none;fillColor=none;align=left;verticalAlign=middle;spacingLeft=4;spacingRight=4;overflow=hidden;points=[[0,0.5],[1,0.5]];portConstraint=eastwest;rotatable=0;whiteSpace=wrap;html=1;" parent="kTSnjcyp7PbZxTP0yt8h-112" vertex="1">
          <mxGeometry y="120" width="190" height="30" as="geometry" />
        </mxCell>
        <mxCell id="kTSnjcyp7PbZxTP0yt8h-123" value="solo los history que sean de ese user" style="whiteSpace=wrap;html=1;rounded=0;fillColor=#e1d5e7;strokeColor=#9673a6;" parent="1" vertex="1">
          <mxGeometry x="430" y="795" width="200" height="60" as="geometry" />
        </mxCell>
        <mxCell id="kTSnjcyp7PbZxTP0yt8h-124" value="solo los history&amp;nbsp; de esa ciudad que tengan el publish en true" style="whiteSpace=wrap;html=1;rounded=0;fillColor=#e1d5e7;strokeColor=#9673a6;" parent="1" vertex="1">
          <mxGeometry x="650" y="790" width="200" height="60" as="geometry" />
        </mxCell>
        <mxCell id="kTSnjcyp7PbZxTP0yt8h-126" value="" style="html=1;shadow=0;dashed=0;align=center;verticalAlign=middle;shape=mxgraph.arrows2.arrow;dy=0.6;dx=40;notch=0;fillColor=#d5e8d4;strokeColor=#82b366;" parent="1" vertex="1">
          <mxGeometry x="500" y="1200" width="310" height="130" as="geometry" />
        </mxCell>
        <mxCell id="kTSnjcyp7PbZxTP0yt8h-127" value="&lt;span style=&quot;text-align: center;&quot;&gt;Los complete son solo para los Rider&lt;/span&gt;" style="text;strokeColor=none;fillColor=none;align=left;verticalAlign=middle;spacingLeft=4;spacingRight=4;overflow=hidden;points=[[0,0.5],[1,0.5]];portConstraint=eastwest;rotatable=0;whiteSpace=wrap;html=1;" parent="1" vertex="1">
          <mxGeometry x="530" y="1250" width="290" height="30" as="geometry" />
        </mxCell>
        <mxCell id="Cvizj9KR2Gh-5Ep8c4Go-1" value="" style="edgeStyle=orthogonalEdgeStyle;rounded=0;orthogonalLoop=1;jettySize=auto;html=1;" parent="1" source="kTSnjcyp7PbZxTP0yt8h-138" target="kTSnjcyp7PbZxTP0yt8h-139" edge="1">
          <mxGeometry relative="1" as="geometry" />
        </mxCell>
        <mxCell id="kTSnjcyp7PbZxTP0yt8h-138" value="publicar chapter" style="whiteSpace=wrap;html=1;fillColor=#ffe6cc;strokeColor=#d79b00;" parent="1" vertex="1">
          <mxGeometry x="2640" y="560" width="120" height="60" as="geometry" />
        </mxCell>
        <mxCell id="kTSnjcyp7PbZxTP0yt8h-139" value="&lt;div&gt;Request&lt;/div&gt;&lt;div&gt;&lt;br&gt;&lt;/div&gt;&lt;div&gt;method: PATCH&lt;/div&gt;&lt;div&gt;&lt;span style=&quot;color: rgb(51, 51, 255);&quot;&gt;url/api/v1/chapter&lt;/span&gt;&lt;span style=&quot;background-color: initial;&quot;&gt;?&lt;/span&gt;&lt;font style=&quot;background-color: initial;&quot; color=&quot;#ff0000&quot;&gt;${id_chapter}&lt;/font&gt;&lt;/div&gt;&lt;div&gt;&lt;br&gt;&lt;/div&gt;&lt;div&gt;&lt;span style=&quot;color: rgb(51, 51, 255);&quot;&gt;&lt;br&gt;&lt;/span&gt;&lt;/div&gt;&lt;div&gt;&lt;br&gt;&lt;/div&gt;" style="whiteSpace=wrap;html=1;" parent="1" vertex="1">
          <mxGeometry x="2600" y="665" width="194" height="205" as="geometry" />
        </mxCell>
        <mxCell id="kTSnjcyp7PbZxTP0yt8h-142" style="edgeStyle=orthogonalEdgeStyle;rounded=0;orthogonalLoop=1;jettySize=auto;html=1;entryX=0.5;entryY=0;entryDx=0;entryDy=0;" parent="1" source="kTSnjcyp7PbZxTP0yt8h-41" target="kTSnjcyp7PbZxTP0yt8h-138" edge="1">
          <mxGeometry relative="1" as="geometry">
            <mxPoint x="2604" y="440" as="sourcePoint" />
            <mxPoint x="2980" y="573" as="targetPoint" />
            <Array as="points">
              <mxPoint x="2790" y="441" />
              <mxPoint x="2790" y="490" />
              <mxPoint x="2700" y="490" />
            </Array>
          </mxGeometry>
        </mxCell>
        <mxCell id="Cvizj9KR2Gh-5Ep8c4Go-2" style="edgeStyle=orthogonalEdgeStyle;rounded=0;orthogonalLoop=1;jettySize=auto;html=1;entryX=1;entryY=0.284;entryDx=0;entryDy=0;entryPerimeter=0;" parent="1" source="kTSnjcyp7PbZxTP0yt8h-139" target="kTSnjcyp7PbZxTP0yt8h-51" edge="1">
          <mxGeometry relative="1" as="geometry">
            <Array as="points">
              <mxPoint x="2680" y="1039" />
            </Array>
          </mxGeometry>
        </mxCell>
        <mxCell id="Cvizj9KR2Gh-5Ep8c4Go-3" style="edgeStyle=orthogonalEdgeStyle;rounded=0;orthogonalLoop=1;jettySize=auto;html=1;entryX=0.005;entryY=0.767;entryDx=0;entryDy=0;entryPerimeter=0;" parent="1" source="4v4AGWWlLgVqddMLJCEB-44" target="4v4AGWWlLgVqddMLJCEB-46" edge="1">
          <mxGeometry relative="1" as="geometry" />
        </mxCell>
        <mxCell id="Cvizj9KR2Gh-5Ep8c4Go-4" style="edgeStyle=orthogonalEdgeStyle;rounded=0;orthogonalLoop=1;jettySize=auto;html=1;entryX=0;entryY=0.5;entryDx=0;entryDy=0;" parent="1" source="4v4AGWWlLgVqddMLJCEB-43" target="4v4AGWWlLgVqddMLJCEB-28" edge="1">
          <mxGeometry relative="1" as="geometry">
            <Array as="points">
              <mxPoint x="1320" y="-540" />
              <mxPoint x="1320" y="-825" />
            </Array>
          </mxGeometry>
        </mxCell>
        <mxCell id="Cvizj9KR2Gh-5Ep8c4Go-5" style="edgeStyle=orthogonalEdgeStyle;rounded=0;orthogonalLoop=1;jettySize=auto;html=1;" parent="1" source="4v4AGWWlLgVqddMLJCEB-52" target="4v4AGWWlLgVqddMLJCEB-46" edge="1">
          <mxGeometry relative="1" as="geometry">
            <Array as="points">
              <mxPoint x="1900" y="-285" />
              <mxPoint x="1900" y="-615.0000000000001" />
            </Array>
          </mxGeometry>
        </mxCell>
        <mxCell id="Cvizj9KR2Gh-5Ep8c4Go-7" style="edgeStyle=orthogonalEdgeStyle;rounded=0;orthogonalLoop=1;jettySize=auto;html=1;entryX=1;entryY=0.5;entryDx=0;entryDy=0;exitX=0;exitY=0.733;exitDx=0;exitDy=0;exitPerimeter=0;" parent="1" source="4v4AGWWlLgVqddMLJCEB-77" target="4v4AGWWlLgVqddMLJCEB-28" edge="1">
          <mxGeometry relative="1" as="geometry">
            <Array as="points">
              <mxPoint x="2010" y="-680" />
              <mxPoint x="1900" y="-680" />
              <mxPoint x="1900" y="-825" />
            </Array>
          </mxGeometry>
        </mxCell>
        <mxCell id="Cvizj9KR2Gh-5Ep8c4Go-8" style="edgeStyle=orthogonalEdgeStyle;rounded=0;orthogonalLoop=1;jettySize=auto;html=1;entryX=1;entryY=0.5;entryDx=0;entryDy=0;" parent="1" source="kTSnjcyp7PbZxTP0yt8h-114" target="4v4AGWWlLgVqddMLJCEB-76" edge="1">
          <mxGeometry relative="1" as="geometry">
            <Array as="points">
              <mxPoint x="2300" y="-415" />
              <mxPoint x="2300" y="-710" />
              <mxPoint x="2200" y="-710" />
            </Array>
          </mxGeometry>
        </mxCell>
        <mxCell id="Cvizj9KR2Gh-5Ep8c4Go-46" value="" style="edgeStyle=orthogonalEdgeStyle;rounded=0;orthogonalLoop=1;jettySize=auto;html=1;" parent="1" source="Cvizj9KR2Gh-5Ep8c4Go-43" target="Cvizj9KR2Gh-5Ep8c4Go-45" edge="1">
          <mxGeometry relative="1" as="geometry" />
        </mxCell>
        <mxCell id="Cvizj9KR2Gh-5Ep8c4Go-43" value="&lt;div&gt;&lt;div&gt;Request&lt;/div&gt;&lt;div&gt;&lt;br&gt;&lt;/div&gt;&lt;div&gt;method: POST&lt;/div&gt;&lt;div&gt;&lt;span style=&quot;color: rgb(51, 51, 255); background-color: initial;&quot;&gt;url/api/v1/history&lt;/span&gt;&lt;span style=&quot;background-color: initial;&quot;&gt;/&lt;font color=&quot;#cc00cc&quot;&gt;reader&lt;/font&gt;/?&lt;/span&gt;&lt;font color=&quot;#ff0000&quot;&gt;${user_id}&lt;/font&gt;&lt;/div&gt;&lt;/div&gt;&lt;div&gt;&lt;br&gt;&lt;/div&gt;body {&lt;div&gt;&lt;br&gt;&lt;/div&gt;&lt;div&gt;user_page_id&lt;/div&gt;&lt;div&gt;&lt;br&gt;&lt;/div&gt;&lt;div&gt;}&lt;/div&gt;" style="whiteSpace=wrap;html=1;" parent="1" vertex="1">
          <mxGeometry x="-110" y="687.5" width="230" height="182.5" as="geometry" />
        </mxCell>
        <mxCell id="Cvizj9KR2Gh-5Ep8c4Go-52" style="edgeStyle=orthogonalEdgeStyle;rounded=0;orthogonalLoop=1;jettySize=auto;html=1;entryX=0;entryY=0.5;entryDx=0;entryDy=0;entryPerimeter=0;" parent="1" source="Cvizj9KR2Gh-5Ep8c4Go-45" target="kTSnjcyp7PbZxTP0yt8h-126" edge="1">
          <mxGeometry relative="1" as="geometry">
            <Array as="points">
              <mxPoint y="1250" />
              <mxPoint x="354" y="1250" />
            </Array>
          </mxGeometry>
        </mxCell>
        <mxCell id="Cvizj9KR2Gh-5Ep8c4Go-45" value="resolver la logica del user_chapter si todos los page estan completos pasando el user_chapter complete a true&lt;div&gt;&lt;br&gt;&lt;/div&gt;&lt;div&gt;&amp;nbsp;&lt;span style=&quot;background-color: initial;&quot;&gt;y&lt;/span&gt;&lt;/div&gt;&lt;div&gt;&lt;span style=&quot;background-color: initial;&quot;&gt;&lt;br&gt;&lt;/span&gt;&lt;/div&gt;&lt;div&gt;&lt;span style=&quot;background-color: initial;&quot;&gt;&amp;nbsp;si todos los chapter estan completos pasar el user_history complete a true&lt;/span&gt;&lt;/div&gt;" style="whiteSpace=wrap;html=1;fillColor=#e1d5e7;strokeColor=#9673a6;" parent="1" vertex="1">
          <mxGeometry x="-175" y="1000" width="330" height="120" as="geometry" />
        </mxCell>
        <mxCell id="Cvizj9KR2Gh-5Ep8c4Go-50" value="" style="edgeStyle=orthogonalEdgeStyle;rounded=0;orthogonalLoop=1;jettySize=auto;html=1;" parent="1" source="Cvizj9KR2Gh-5Ep8c4Go-49" target="Cvizj9KR2Gh-5Ep8c4Go-43" edge="1">
          <mxGeometry relative="1" as="geometry" />
        </mxCell>
        <mxCell id="Cvizj9KR2Gh-5Ep8c4Go-49" value="Leer historias por user reader" style="whiteSpace=wrap;html=1;fillColor=#ffe6cc;strokeColor=#d79b00;" parent="1" vertex="1">
          <mxGeometry x="-80" y="562.5" width="170" height="60" as="geometry" />
        </mxCell>
        <mxCell id="vZqE9rtirsH-dbJtb7xl-2" style="edgeStyle=orthogonalEdgeStyle;rounded=0;orthogonalLoop=1;jettySize=auto;html=1;entryX=1;entryY=0.5;entryDx=0;entryDy=0;" parent="1" source="vZqE9rtirsH-dbJtb7xl-1" target="4v4AGWWlLgVqddMLJCEB-46" edge="1">
          <mxGeometry relative="1" as="geometry" />
        </mxCell>
        <mxCell id="vZqE9rtirsH-dbJtb7xl-4" style="edgeStyle=orthogonalEdgeStyle;rounded=0;orthogonalLoop=1;jettySize=auto;html=1;entryX=1;entryY=0.5;entryDx=0;entryDy=0;" parent="1" source="vZqE9rtirsH-dbJtb7xl-3" target="4v4AGWWlLgVqddMLJCEB-51" edge="1">
          <mxGeometry relative="1" as="geometry" />
        </mxCell>
        <mxCell id="vZqE9rtirsH-dbJtb7xl-5" value="Login" style="shape=parallelogram;perimeter=parallelogramPerimeter;whiteSpace=wrap;html=1;fixedSize=1;" parent="1" vertex="1">
          <mxGeometry x="-467" y="590" width="120" height="60" as="geometry" />
        </mxCell>
        <mxCell id="vZqE9rtirsH-dbJtb7xl-6" value="Register" style="shape=parallelogram;perimeter=parallelogramPerimeter;whiteSpace=wrap;html=1;fixedSize=1;" parent="1" vertex="1">
          <mxGeometry x="-687" y="580" width="120" height="60" as="geometry" />
        </mxCell>
        <mxCell id="Jl9io4gUFYn2vLOO0o0W-20" style="edgeStyle=orthogonalEdgeStyle;rounded=0;orthogonalLoop=1;jettySize=auto;html=1;entryX=0.567;entryY=0.017;entryDx=0;entryDy=0;entryPerimeter=0;" parent="1" source="4v4AGWWlLgVqddMLJCEB-63" edge="1">
          <mxGeometry relative="1" as="geometry">
            <mxPoint x="-861.96" y="571.02" as="targetPoint" />
          </mxGeometry>
        </mxCell>
        <mxCell id="Jl9io4gUFYn2vLOO0o0W-23" value="" style="edgeStyle=orthogonalEdgeStyle;rounded=0;orthogonalLoop=1;jettySize=auto;html=1;" parent="1" source="Jl9io4gUFYn2vLOO0o0W-21" target="Jl9io4gUFYn2vLOO0o0W-22" edge="1">
          <mxGeometry relative="1" as="geometry" />
        </mxCell>
        <mxCell id="Jl9io4gUFYn2vLOO0o0W-28" value="" style="edgeStyle=orthogonalEdgeStyle;rounded=0;orthogonalLoop=1;jettySize=auto;html=1;" parent="1" source="Jl9io4gUFYn2vLOO0o0W-21" target="Jl9io4gUFYn2vLOO0o0W-27" edge="1">
          <mxGeometry relative="1" as="geometry" />
        </mxCell>
        <mxCell id="Jl9io4gUFYn2vLOO0o0W-21" value="actualizar user" style="whiteSpace=wrap;html=1;fillColor=#ffe6cc;strokeColor=#d79b00;" parent="1" vertex="1">
          <mxGeometry x="-950" y="570" width="170" height="60" as="geometry" />
        </mxCell>
        <mxCell id="Jl9io4gUFYn2vLOO0o0W-22" value="&lt;div&gt;&lt;div&gt;Request&lt;/div&gt;&lt;div&gt;&lt;br&gt;&lt;/div&gt;&lt;div&gt;method: PUT&lt;/div&gt;&lt;div&gt;&lt;span style=&quot;color: rgb(51, 51, 255); background-color: initial;&quot;&gt;url/api/v1/user/${id}&lt;/span&gt;&lt;/div&gt;&lt;/div&gt;&lt;div&gt;&lt;br&gt;&lt;/div&gt;body&amp;nbsp;{&lt;div&gt;name,&lt;/div&gt;&lt;div&gt;avatar&lt;/div&gt;&lt;div&gt;}&lt;/div&gt;" style="whiteSpace=wrap;html=1;" parent="1" vertex="1">
          <mxGeometry x="-950" y="706.25" width="190" height="227.5" as="geometry" />
        </mxCell>
        <mxCell id="Jl9io4gUFYn2vLOO0o0W-30" value="" style="edgeStyle=orthogonalEdgeStyle;rounded=0;orthogonalLoop=1;jettySize=auto;html=1;" parent="1" source="Jl9io4gUFYn2vLOO0o0W-27" target="Jl9io4gUFYn2vLOO0o0W-29" edge="1">
          <mxGeometry relative="1" as="geometry" />
        </mxCell>
        <mxCell id="Jl9io4gUFYn2vLOO0o0W-27" value="buscar user por id" style="whiteSpace=wrap;html=1;fillColor=#ffe6cc;strokeColor=#d79b00;" parent="1" vertex="1">
          <mxGeometry x="-1240" y="570" width="120" height="60" as="geometry" />
        </mxCell>
        <mxCell id="Jl9io4gUFYn2vLOO0o0W-29" value="eliminar user logic" style="whiteSpace=wrap;html=1;fillColor=#ffe6cc;strokeColor=#d79b00;" parent="1" vertex="1">
          <mxGeometry x="-1560" y="570" width="155" height="60" as="geometry" />
        </mxCell>
        <mxCell id="Jl9io4gUFYn2vLOO0o0W-31" value="&lt;div&gt;&lt;div&gt;Request&lt;/div&gt;&lt;div&gt;&lt;br&gt;&lt;/div&gt;&lt;div&gt;method: GET&lt;/div&gt;&lt;div&gt;&lt;span style=&quot;color: rgb(51, 51, 255); background-color: initial;&quot;&gt;url/api/v1/user/${id]&lt;/span&gt;&lt;/div&gt;&lt;/div&gt;&lt;div&gt;&lt;br&gt;&lt;/div&gt;" style="whiteSpace=wrap;html=1;" parent="1" vertex="1">
          <mxGeometry x="-1275" y="700" width="190" height="227.5" as="geometry" />
        </mxCell>
        <mxCell id="Jl9io4gUFYn2vLOO0o0W-35" style="edgeStyle=orthogonalEdgeStyle;rounded=0;orthogonalLoop=1;jettySize=auto;html=1;entryX=0;entryY=0.5;entryDx=0;entryDy=0;" parent="1" source="Jl9io4gUFYn2vLOO0o0W-33" target="4v4AGWWlLgVqddMLJCEB-17" edge="1">
          <mxGeometry relative="1" as="geometry">
            <Array as="points">
              <mxPoint x="-1440" y="1165" />
            </Array>
          </mxGeometry>
        </mxCell>
        <mxCell id="Jl9io4gUFYn2vLOO0o0W-33" value="&lt;div&gt;&lt;div&gt;Request&lt;/div&gt;&lt;div&gt;&lt;br&gt;&lt;/div&gt;&lt;div&gt;method: PATCH&lt;/div&gt;&lt;div&gt;&lt;span style=&quot;color: rgb(51, 51, 255); background-color: initial;&quot;&gt;url/api/v1/user/${id]&lt;/span&gt;&lt;/div&gt;&lt;/div&gt;&lt;div&gt;&lt;br&gt;&lt;/div&gt;&lt;div&gt;&lt;br&gt;&lt;/div&gt;" style="whiteSpace=wrap;html=1;" parent="1" vertex="1">
          <mxGeometry x="-1560" y="686.25" width="190" height="227.5" as="geometry" />
        </mxCell>
        <mxCell id="Jl9io4gUFYn2vLOO0o0W-34" style="edgeStyle=orthogonalEdgeStyle;rounded=0;orthogonalLoop=1;jettySize=auto;html=1;entryX=-0.002;entryY=0.921;entryDx=0;entryDy=0;entryPerimeter=0;" parent="1" source="Jl9io4gUFYn2vLOO0o0W-31" target="4v4AGWWlLgVqddMLJCEB-17" edge="1">
          <mxGeometry relative="1" as="geometry">
            <Array as="points">
              <mxPoint x="-1180" y="1287" />
            </Array>
          </mxGeometry>
        </mxCell>
        <mxCell id="Jl9io4gUFYn2vLOO0o0W-36" style="edgeStyle=orthogonalEdgeStyle;rounded=0;orthogonalLoop=1;jettySize=auto;html=1;entryX=0.002;entryY=0.421;entryDx=0;entryDy=0;entryPerimeter=0;" parent="1" source="Jl9io4gUFYn2vLOO0o0W-22" target="4v4AGWWlLgVqddMLJCEB-17" edge="1">
          <mxGeometry relative="1" as="geometry">
            <Array as="points">
              <mxPoint x="-850" y="977" />
              <mxPoint x="-860" y="977" />
              <mxPoint x="-860" y="1142" />
            </Array>
          </mxGeometry>
        </mxCell>
        <mxCell id="BAwS0Nd3ZvO8XFaEo_h9-2" value="Country" style="swimlane;fontStyle=0;childLayout=stackLayout;horizontal=1;startSize=30;horizontalStack=0;resizeParent=1;resizeParentMax=0;resizeLast=0;collapsible=1;marginBottom=0;whiteSpace=wrap;html=1;fillColor=#d5e8d4;strokeColor=#82b366;" vertex="1" parent="1">
          <mxGeometry x="1355" y="-470" width="140" height="90" as="geometry" />
        </mxCell>
        <mxCell id="BAwS0Nd3ZvO8XFaEo_h9-3" value="id : PK" style="text;strokeColor=none;fillColor=none;align=left;verticalAlign=middle;spacingLeft=4;spacingRight=4;overflow=hidden;points=[[0,0.5],[1,0.5]];portConstraint=eastwest;rotatable=0;whiteSpace=wrap;html=1;" vertex="1" parent="BAwS0Nd3ZvO8XFaEo_h9-2">
          <mxGeometry y="30" width="140" height="30" as="geometry" />
        </mxCell>
        <mxCell id="BAwS0Nd3ZvO8XFaEo_h9-4" value="name: String" style="text;strokeColor=none;fillColor=none;align=left;verticalAlign=middle;spacingLeft=4;spacingRight=4;overflow=hidden;points=[[0,0.5],[1,0.5]];portConstraint=eastwest;rotatable=0;whiteSpace=wrap;html=1;" vertex="1" parent="BAwS0Nd3ZvO8XFaEo_h9-2">
          <mxGeometry y="60" width="140" height="30" as="geometry" />
        </mxCell>
        <mxCell id="BAwS0Nd3ZvO8XFaEo_h9-6" value="province" style="swimlane;fontStyle=0;childLayout=stackLayout;horizontal=1;startSize=30;horizontalStack=0;resizeParent=1;resizeParentMax=0;resizeLast=0;collapsible=1;marginBottom=0;whiteSpace=wrap;html=1;fillColor=#d5e8d4;strokeColor=#82b366;" vertex="1" parent="1">
          <mxGeometry x="1355" y="-350" width="140" height="120" as="geometry" />
        </mxCell>
        <mxCell id="BAwS0Nd3ZvO8XFaEo_h9-7" value="id : PK" style="text;strokeColor=none;fillColor=none;align=left;verticalAlign=middle;spacingLeft=4;spacingRight=4;overflow=hidden;points=[[0,0.5],[1,0.5]];portConstraint=eastwest;rotatable=0;whiteSpace=wrap;html=1;" vertex="1" parent="BAwS0Nd3ZvO8XFaEo_h9-6">
          <mxGeometry y="30" width="140" height="30" as="geometry" />
        </mxCell>
        <mxCell id="BAwS0Nd3ZvO8XFaEo_h9-8" value="name: String" style="text;strokeColor=none;fillColor=none;align=left;verticalAlign=middle;spacingLeft=4;spacingRight=4;overflow=hidden;points=[[0,0.5],[1,0.5]];portConstraint=eastwest;rotatable=0;whiteSpace=wrap;html=1;" vertex="1" parent="BAwS0Nd3ZvO8XFaEo_h9-6">
          <mxGeometry y="60" width="140" height="30" as="geometry" />
        </mxCell>
        <mxCell id="BAwS0Nd3ZvO8XFaEo_h9-9" value="countri_id: FK" style="text;strokeColor=none;fillColor=none;align=left;verticalAlign=middle;spacingLeft=4;spacingRight=4;overflow=hidden;points=[[0,0.5],[1,0.5]];portConstraint=eastwest;rotatable=0;whiteSpace=wrap;html=1;" vertex="1" parent="BAwS0Nd3ZvO8XFaEo_h9-6">
          <mxGeometry y="90" width="140" height="30" as="geometry" />
        </mxCell>
        <mxCell id="BAwS0Nd3ZvO8XFaEo_h9-10" style="edgeStyle=orthogonalEdgeStyle;rounded=0;orthogonalLoop=1;jettySize=auto;html=1;entryX=0;entryY=0.5;entryDx=0;entryDy=0;" edge="1" parent="1" source="BAwS0Nd3ZvO8XFaEo_h9-9" target="BAwS0Nd3ZvO8XFaEo_h9-3">
          <mxGeometry relative="1" as="geometry" />
        </mxCell>
        <mxCell id="BAwS0Nd3ZvO8XFaEo_h9-12" style="edgeStyle=orthogonalEdgeStyle;rounded=0;orthogonalLoop=1;jettySize=auto;html=1;entryX=1;entryY=0.5;entryDx=0;entryDy=0;" edge="1" parent="1" source="BAwS0Nd3ZvO8XFaEo_h9-11" target="BAwS0Nd3ZvO8XFaEo_h9-3">
          <mxGeometry relative="1" as="geometry" />
        </mxCell>
        <mxCell id="BAwS0Nd3ZvO8XFaEo_h9-16" value="" style="edgeStyle=orthogonalEdgeStyle;rounded=0;orthogonalLoop=1;jettySize=auto;html=1;" edge="1" parent="1" source="BAwS0Nd3ZvO8XFaEo_h9-14" target="BAwS0Nd3ZvO8XFaEo_h9-15">
          <mxGeometry relative="1" as="geometry" />
        </mxCell>
        <mxCell id="BAwS0Nd3ZvO8XFaEo_h9-14" value="genre controller" style="rhombus;whiteSpace=wrap;html=1;fillColor=#d5e8d4;strokeColor=#82b366;" vertex="1" parent="1">
          <mxGeometry x="3330" y="360" width="174" height="120" as="geometry" />
        </mxCell>
        <mxCell id="BAwS0Nd3ZvO8XFaEo_h9-18" value="" style="edgeStyle=orthogonalEdgeStyle;rounded=0;orthogonalLoop=1;jettySize=auto;html=1;" edge="1" parent="1" source="BAwS0Nd3ZvO8XFaEo_h9-15" target="BAwS0Nd3ZvO8XFaEo_h9-17">
          <mxGeometry relative="1" as="geometry" />
        </mxCell>
        <mxCell id="BAwS0Nd3ZvO8XFaEo_h9-15" value="listar los genre" style="whiteSpace=wrap;html=1;fillColor=#ffe6cc;strokeColor=#d79b00;" vertex="1" parent="1">
          <mxGeometry x="3357" y="570" width="120" height="60" as="geometry" />
        </mxCell>
        <mxCell id="BAwS0Nd3ZvO8XFaEo_h9-20" value="" style="edgeStyle=orthogonalEdgeStyle;rounded=0;orthogonalLoop=1;jettySize=auto;html=1;" edge="1" parent="1" source="BAwS0Nd3ZvO8XFaEo_h9-17" target="BAwS0Nd3ZvO8XFaEo_h9-19">
          <mxGeometry relative="1" as="geometry" />
        </mxCell>
        <mxCell id="BAwS0Nd3ZvO8XFaEo_h9-17" value="&lt;div&gt;Request&lt;/div&gt;&lt;div&gt;&lt;br&gt;&lt;/div&gt;&lt;div&gt;method: GET&lt;/div&gt;&lt;div&gt;&lt;span style=&quot;color: rgb(51, 51, 255);&quot;&gt;url/api/v1/genre&lt;/span&gt;&lt;/div&gt;&lt;div&gt;&lt;br&gt;&lt;/div&gt;&lt;div&gt;&lt;span style=&quot;color: rgb(51, 51, 255);&quot;&gt;&lt;br&gt;&lt;/span&gt;&lt;/div&gt;&lt;div&gt;&lt;br&gt;&lt;/div&gt;" style="whiteSpace=wrap;html=1;" vertex="1" parent="1">
          <mxGeometry x="3320" y="687.5" width="194" height="205" as="geometry" />
        </mxCell>
        <mxCell id="BAwS0Nd3ZvO8XFaEo_h9-19" value="response 200&lt;div&gt;&lt;br&gt;&lt;/div&gt;&lt;div&gt;body {&lt;/div&gt;&lt;div&gt;&lt;br&gt;&lt;/div&gt;&lt;div&gt;List&amp;lt;genre&amp;gt;&lt;/div&gt;&lt;div&gt;&lt;br&gt;&lt;/div&gt;&lt;div&gt;}&lt;/div&gt;" style="whiteSpace=wrap;html=1;" vertex="1" parent="1">
          <mxGeometry x="3357" y="960" width="163" height="120" as="geometry" />
        </mxCell>
      </root>
    </mxGraphModel>
  </diagram>
</mxfile>
